<?xml version="1.0" encoding="utf-8"?>
<!-- Generator: Adobe Illustrator 16.0.0, SVG Export Plug-In . SVG Version: 6.00 Build 0)  -->
<!DOCTYPE svg PUBLIC "-//W3C//DTD SVG 1.1//EN" "http://www.w3.org/Graphics/SVG/1.1/DTD/svg11.dtd">
<svg version="1.1" id="Layer_1" xmlns="http://www.w3.org/2000/svg" xmlns:xlink="http://www.w3.org/1999/xlink" x="0px" y="0px"
	 width="382.677px" height="155.905px" viewBox="0 0 382.677 155.905" enable-background="new 0 0 382.677 155.905"
	 xml:space="preserve">
<g id="LINE_152_">
	<path fill="#FFFFFF" d="M372.677,7.109l-58.1,141.729h-15.32l-35.67-86.989c-8.899-21.73-33.729-32.12-55.46-23.221
		c-21.729,8.91-32.13,33.75-23.21,55.48c8.9,21.72,33.73,32.12,55.46,23.21c5.22-2.14,9.95-5.29,13.94-9.28l10.02,10.021
		l10.03,10.029c-6.65,6.641-14.54,11.9-23.24,15.45c-36.21,14.851-77.6-2.47-92.45-38.68c-14.84-36.22,2.48-77.61,38.7-92.45
		c36.21-14.85,77.601,2.47,92.45,38.69l17.09,41.689l35.12-85.68H372.677z"/>
</g>
<g id="LINE_156_">
	<polygon fill="#FFFFFF" points="139.087,7.109 139.087,148.839 132.007,148.839 132.007,24.22 75.317,80.909 18.627,24.22 
		18.627,148.839 11.537,148.839 11.537,7.109 75.317,70.89 	"/>
</g>
<g id="LINE_196_">
	<polygon fill="#FFFFFF" points="124.917,41.329 124.917,51.35 78.857,97.409 78.857,148.839 71.768,148.839 71.768,97.409 
		25.707,51.35 25.707,41.329 75.317,90.939 	"/>
</g>
<g>
</g>
<g>
</g>
<g>
</g>
<g>
</g>
<g>
</g>
<g>
</g>
</svg>
